<svg width="19" height="20" viewBox="0 0 19 20" fill="none" xmlns="http://www.w3.org/2000/svg">
<path d="M14.2184 3.81956C13.9989 3.81956 13.7843 3.88465 13.6018 4.00662C13.4192 4.12859 13.277 4.30194 13.1929 4.50476C13.1089 4.70758 13.087 4.93076 13.1298 5.14607C13.1726 5.36138 13.2783 5.55916 13.4336 5.71439C13.5888 5.86963 13.7866 5.97534 14.0019 6.01817C14.2172 6.061 14.4404 6.03902 14.6432 5.95501C14.846 5.871 15.0194 5.72873 15.1413 5.54619C15.2633 5.36366 15.3284 5.14906 15.3284 4.92953C15.3284 4.63514 15.2114 4.35282 15.0033 4.14466C14.7951 3.9365 14.5128 3.81956 14.2184 3.81956ZM18.4733 6.058C18.4553 5.29054 18.3116 4.53123 18.0478 3.81031C17.8126 3.19347 17.4466 2.63492 16.9748 2.1731C16.5168 1.69898 15.957 1.33523 15.3376 1.10938C14.6186 0.837584 13.8585 0.690558 13.09 0.674639C12.1095 0.619141 11.795 0.619141 9.27905 0.619141C6.76312 0.619141 6.44863 0.619141 5.46815 0.674639C4.69964 0.690558 3.93949 0.837584 3.22046 1.10938C2.60228 1.33752 2.04291 1.70096 1.58326 2.1731C1.10914 2.63113 0.745391 3.19098 0.519534 3.81031C0.24774 4.52933 0.100714 5.28948 0.0847954 6.058C0.0292968 7.03847 0.0292969 7.35296 0.0292969 9.8689C0.0292969 12.3848 0.0292968 12.6993 0.0847954 13.6798C0.100714 14.4483 0.24774 15.2085 0.519534 15.9275C0.745391 16.5468 1.10914 17.1067 1.58326 17.5647C2.04291 18.0368 2.60228 18.4003 3.22046 18.6284C3.93949 18.9002 4.69964 19.0472 5.46815 19.0632C6.44863 19.1187 6.76312 19.1187 9.27905 19.1187C11.795 19.1187 12.1095 19.1187 13.09 19.0632C13.8585 19.0472 14.6186 18.9002 15.3376 18.6284C15.957 18.4026 16.5168 18.0388 16.9748 17.5647C17.4487 17.1046 17.815 16.5455 18.0478 15.9275C18.3116 15.2066 18.4553 14.4473 18.4733 13.6798C18.4733 12.6993 18.5288 12.3848 18.5288 9.8689C18.5288 7.35296 18.5288 7.03847 18.4733 6.058ZM16.8084 13.5688C16.8016 14.1559 16.6953 14.7377 16.4939 15.2893C16.3462 15.6918 16.109 16.0555 15.8001 16.353C15.5001 16.6587 15.1371 16.8954 14.7364 17.0467C14.1848 17.2481 13.6031 17.3545 13.016 17.3612C12.091 17.4074 11.7487 17.4167 9.31605 17.4167C6.88337 17.4167 6.54112 17.4167 5.61615 17.3612C5.00649 17.3726 4.39943 17.2787 3.8217 17.0837C3.43855 16.9247 3.09222 16.6885 2.80422 16.39C2.49721 16.0928 2.26297 15.7288 2.11974 15.3263C1.89391 14.7668 1.76866 14.1718 1.74975 13.5688C1.74975 12.6438 1.69425 12.3016 1.69425 9.8689C1.69425 7.43621 1.69425 7.09397 1.74975 6.16899C1.7539 5.56874 1.86348 4.97388 2.07349 4.41154C2.23633 4.02112 2.48628 3.67309 2.80422 3.39407C3.08524 3.07603 3.43255 2.82345 3.8217 2.65409C4.38552 2.45063 4.97976 2.34429 5.57915 2.3396C6.50413 2.3396 6.84637 2.2841 9.27905 2.2841C11.7117 2.2841 12.054 2.2841 12.979 2.3396C13.5661 2.34633 14.1478 2.45267 14.6994 2.65409C15.1197 2.81009 15.497 3.06371 15.8001 3.39407C16.1032 3.6782 16.3401 4.02558 16.4939 4.41154C16.6994 4.97479 16.8058 5.56941 16.8084 6.16899C16.8546 7.09397 16.8639 7.43621 16.8639 9.8689C16.8639 12.3016 16.8546 12.6438 16.8084 13.5688ZM9.27905 5.12377C8.34095 5.1256 7.42444 5.40545 6.64533 5.92796C5.86621 6.45047 5.25946 7.1922 4.90173 8.05942C4.544 8.92663 4.45135 9.88043 4.63548 10.8003C4.81962 11.7201 5.27228 12.5648 5.93626 13.2275C6.60025 13.8902 7.44576 14.3412 8.36597 14.5235C9.28618 14.7059 10.2398 14.6113 11.1063 14.2519C11.9728 13.8925 12.7134 13.2843 13.2344 12.5042C13.7554 11.7241 14.0334 10.807 14.0334 9.8689C14.0347 9.24463 13.9124 8.62629 13.6738 8.04943C13.4352 7.47257 13.0849 6.94857 12.6431 6.50758C12.2012 6.06659 11.6765 5.71731 11.0992 5.47982C10.5219 5.24234 9.90331 5.12133 9.27905 5.12377ZM9.27905 12.9491C8.66985 12.9491 8.07433 12.7684 7.5678 12.43C7.06127 12.0915 6.66648 11.6105 6.43335 11.0476C6.20022 10.4848 6.13922 9.86548 6.25807 9.26799C6.37692 8.67049 6.67028 8.12166 7.10104 7.69089C7.53181 7.26012 8.08065 6.96676 8.67814 6.84791C9.27564 6.72906 9.89495 6.79006 10.4578 7.02319C11.0206 7.25632 11.5017 7.65111 11.8401 8.15765C12.1786 8.66418 12.3592 9.2597 12.3592 9.8689C12.3592 10.2734 12.2796 10.6739 12.1248 11.0476C11.97 11.4213 11.7431 11.7609 11.4571 12.0469C11.171 12.3329 10.8315 12.5598 10.4578 12.7146C10.0841 12.8694 9.68355 12.9491 9.27905 12.9491Z" fill="#27E9E9"/>
</svg>
