<svg width="21" height="20" viewBox="0 0 21 20" fill="none" xmlns="http://www.w3.org/2000/svg">
<path d="M0.433594 2.64598C0.433594 2.01234 0.65537 1.48959 1.0989 1.07775C1.54244 0.665884 2.11905 0.459961 2.82871 0.459961C3.52571 0.459961 4.08963 0.662709 4.5205 1.06824C4.96403 1.48644 5.18581 2.03135 5.18581 2.70301C5.18581 3.31129 4.97038 3.81818 4.53951 4.22372C4.09597 4.64191 3.51303 4.85101 2.79069 4.85101H2.77168C2.07469 4.85101 1.51077 4.64191 1.0799 4.22372C0.649021 3.80552 0.433594 3.2796 0.433594 2.64598ZM0.680709 19.2787V6.58081H4.90068V19.2787H0.680709ZM7.23877 19.2787H11.4587V12.1884C11.4587 11.7449 11.5094 11.4027 11.6108 11.1619C11.7882 10.7311 12.0575 10.3667 12.4187 10.0689C12.7798 9.77113 13.2329 9.62223 13.7778 9.62223C15.1971 9.62223 15.9068 10.579 15.9068 12.4926V19.2787H20.1268V11.9983C20.1268 10.1228 19.6832 8.7003 18.7962 7.73085C17.9091 6.7614 16.7369 6.27667 15.2795 6.27667C13.6448 6.27667 12.3712 6.98 11.4587 8.38666V8.42467H11.4397L11.4587 8.38666V6.58081H7.23877C7.26411 6.98633 7.27678 8.24724 7.27678 10.3636C7.27678 12.4799 7.26411 15.4516 7.23877 19.2787Z" fill="#27E9E9"/>
</svg>
