<svg width="25" height="24" viewBox="0 0 25 24" fill="none" xmlns="http://www.w3.org/2000/svg">
<path d="M17.7626 10.75C17.3326 10.75 16.9926 10.4 16.9926 9.98001C16.9926 9.61001 16.6226 8.84001 16.0026 8.17001C15.3926 7.52001 14.7226 7.14001 14.1626 7.14001C13.7326 7.14001 13.3926 6.79001 13.3926 6.37001C13.3926 5.95001 13.7426 5.60001 14.1626 5.60001C15.1626 5.60001 16.2126 6.14001 17.1326 7.11001C17.9926 8.02001 18.5426 9.15001 18.5426 9.97001C18.5426 10.4 18.1926 10.75 17.7626 10.75Z" fill="#0BCCCF"/>
<path d="M21.3723 10.75C20.9423 10.75 20.6023 10.4 20.6023 9.98C20.6023 6.43 17.7123 3.55 14.1723 3.55C13.7423 3.55 13.4023 3.2 13.4023 2.78C13.4023 2.36 13.7423 2 14.1623 2C18.5623 2 22.1423 5.58 22.1423 9.98C22.1423 10.4 21.7923 10.75 21.3723 10.75Z" fill="#0BCCCF"/>
<path d="M11.1926 14.95L9.34258 16.8C8.95258 17.19 8.33258 17.19 7.93258 16.81C7.82258 16.7 7.71258 16.6 7.60258 16.49C6.57258 15.45 5.64258 14.36 4.81258 13.22C3.99258 12.08 3.33258 10.94 2.85258 9.81C2.38258 8.67 2.14258 7.58 2.14258 6.54C2.14258 5.86 2.26258 5.21 2.50258 4.61C2.74258 4 3.12258 3.44 3.65258 2.94C4.29258 2.31 4.99258 2 5.73258 2C6.01258 2 6.29258 2.06 6.54258 2.18C6.80258 2.3 7.03258 2.48 7.21258 2.74L9.53258 6.01C9.71258 6.26 9.84258 6.49 9.93258 6.71C10.0226 6.92 10.0726 7.13 10.0726 7.32C10.0726 7.56 10.0026 7.8 9.86258 8.03C9.73258 8.26 9.54258 8.5 9.30258 8.74L8.54258 9.53C8.43258 9.64 8.38258 9.77 8.38258 9.93C8.38258 10.01 8.39258 10.08 8.41258 10.16C8.44258 10.24 8.47258 10.3 8.49258 10.36C8.67258 10.69 8.98258 11.12 9.42258 11.64C9.87258 12.16 10.3526 12.69 10.8726 13.22C10.9726 13.32 11.0826 13.42 11.1826 13.52C11.5826 13.91 11.5926 14.55 11.1926 14.95Z" fill="#0BCCCF"/>
<path d="M22.1122 18.33C22.1122 18.61 22.0622 18.9 21.9622 19.18C21.9322 19.26 21.9022 19.34 21.8622 19.42C21.6922 19.78 21.4722 20.12 21.1822 20.44C20.6922 20.98 20.1522 21.37 19.5422 21.62C19.5322 21.62 19.5222 21.63 19.5122 21.63C18.9222 21.87 18.2822 22 17.5922 22C16.5722 22 15.4822 21.76 14.3322 21.27C13.1822 20.78 12.0322 20.12 10.8922 19.29C10.5022 19 10.1122 18.71 9.74219 18.4L13.0122 15.13C13.2922 15.34 13.5422 15.5 13.7522 15.61C13.8022 15.63 13.8622 15.66 13.9322 15.69C14.0122 15.72 14.0922 15.73 14.1822 15.73C14.3522 15.73 14.4822 15.67 14.5922 15.56L15.3522 14.81C15.6022 14.56 15.8422 14.37 16.0722 14.25C16.3022 14.11 16.5322 14.04 16.7822 14.04C16.9722 14.04 17.1722 14.08 17.3922 14.17C17.6122 14.26 17.8422 14.39 18.0922 14.56L21.4022 16.91C21.6622 17.09 21.8422 17.3 21.9522 17.55C22.0522 17.8 22.1122 18.05 22.1122 18.33Z" fill="#0BCCCF"/>
</svg>
