<svg width="372" height="55" viewBox="0 0 372 55" fill="none" xmlns="http://www.w3.org/2000/svg">
<g clip-path="url(#clip0_369_4314)">
<path d="M22.7226 36.8719C25.9713 36.8719 28.9317 35.744 31.1738 33.709L32.7389 32.3004L39.7897 39.3019L38.1113 40.8846C34.0775 44.6687 28.597 46.7582 22.7201 46.7582C10.0729 46.7582 0.501953 37.046 0.501953 24.2178C0.501953 11.3349 9.84896 1.95801 22.7201 1.95801C28.4889 1.95801 33.9128 4.04754 37.9981 7.77179L39.7357 9.35453L32.793 16.3612L31.2304 15.0046C28.9317 12.9696 25.9147 11.8963 22.7226 11.8963C15.3938 11.8963 10.302 16.9824 10.302 24.2723C10.302 31.5623 15.5612 36.8719 22.7226 36.8719Z" fill="white"/>
<path d="M22.3841 16.8721C24.3585 16.8721 26.2521 17.664 27.6483 19.0735C29.0444 20.483 29.8287 22.3948 29.8287 24.3882C29.8287 26.3815 29.0444 28.2933 27.6483 29.7028C26.2521 31.1124 24.3585 31.9042 22.3841 31.9042C20.4097 31.9042 18.5161 31.1124 17.1199 29.7028C15.7238 28.2933 14.9395 26.3815 14.9395 24.3882C14.9395 22.3948 15.7238 20.483 17.1199 19.0735C18.5161 17.664 20.4097 16.8721 22.3841 16.8721Z" fill="#FF3D2E"/>
<path d="M53.6675 39.1529L51.8923 38.7238L52.5738 32.5399H59.313V34.3825H54.4163L54.0966 37.2431C54.2705 37.1365 54.5229 37.0299 54.8538 36.9234C55.1904 36.8112 55.569 36.7551 55.9896 36.7551C56.573 36.7551 57.0946 36.8504 57.5545 37.0411C58.0145 37.2262 58.4043 37.4955 58.724 37.8488C59.0493 38.2022 59.2933 38.6341 59.456 39.1445C59.6243 39.6493 59.7084 40.2214 59.7084 40.8609C59.7084 41.4218 59.6243 41.949 59.456 42.4426C59.2933 42.9306 59.0437 43.3653 58.7072 43.7467C58.3706 44.1225 57.9472 44.4198 57.4368 44.6385C56.9263 44.8516 56.3262 44.9582 55.6363 44.9582C55.1146 44.9582 54.6126 44.8825 54.1303 44.7311C53.6535 44.574 53.2244 44.3468 52.843 44.0496C52.4616 43.7467 52.1559 43.3765 51.9259 42.939C51.7016 42.5015 51.5782 41.9995 51.5557 41.433H53.7517C53.7909 41.8088 53.8919 42.1285 54.0545 42.3921C54.2172 42.6557 54.4303 42.8577 54.694 42.9979C54.9632 43.1381 55.2745 43.2082 55.6279 43.2082C55.9476 43.2082 56.2224 43.1493 56.4524 43.0315C56.688 42.9081 56.8815 42.7371 57.0329 42.5183C57.1843 42.2996 57.2965 42.0416 57.3694 41.7443C57.4424 41.447 57.4788 41.1217 57.4788 40.7683C57.4788 40.4262 57.4368 40.1149 57.3526 39.8344C57.2685 39.5484 57.1395 39.3016 56.9656 39.094C56.7917 38.8865 56.573 38.7266 56.3093 38.6145C56.0513 38.5023 55.7484 38.4462 55.4007 38.4462C54.9351 38.4462 54.5762 38.5163 54.3238 38.6565C54.077 38.7968 53.8582 38.9622 53.6675 39.1529ZM70.7513 43.0399V44.7899H62.4557V43.2924L66.4352 38.9931C66.8503 38.5219 67.1784 38.1125 67.4196 37.7647C67.6608 37.417 67.8319 37.1028 67.9328 36.8224C68.0394 36.5363 68.0927 36.2643 68.0927 36.0063C68.0927 35.6305 68.0254 35.3024 67.8908 35.0219C67.7561 34.7359 67.5598 34.5143 67.3018 34.3573C67.0494 34.2002 66.7381 34.1217 66.3679 34.1217C65.9585 34.1217 65.6079 34.217 65.3162 34.4077C65.0302 34.5928 64.8114 34.8508 64.66 35.1818C64.5142 35.5127 64.4412 35.8913 64.4412 36.3176H62.2117C62.2117 35.594 62.3799 34.935 62.7165 34.3404C63.053 33.7403 63.5354 33.2607 64.1636 32.9017C64.7918 32.5428 65.5378 32.3633 66.4016 32.3633C67.2429 32.3633 67.9553 32.5035 68.5386 32.7839C69.1219 33.0588 69.565 33.4514 69.8679 33.9618C70.1708 34.4722 70.3223 35.0808 70.3223 35.7875C70.3223 36.1802 70.2577 36.5672 70.1287 36.9486C69.9997 37.33 69.8174 37.7086 69.5819 38.0844C69.3519 38.4546 69.0771 38.8304 68.7573 39.2118C68.4376 39.5932 68.0815 39.9831 67.6888 40.3813L65.2994 43.0399H70.7513ZM79.1738 32.5399H83.6245C84.5556 32.5399 85.3549 32.6802 86.0223 32.9606C86.6898 33.2411 87.203 33.6561 87.562 34.2058C87.921 34.7555 88.1005 35.4314 88.1005 36.2335C88.1005 36.8673 87.9883 37.417 87.7639 37.8825C87.5396 38.348 87.2227 38.7379 86.8132 39.052C86.4094 39.3661 85.9326 39.6129 85.3829 39.7924L84.6594 40.1625H80.7303L80.7134 38.3368H83.6497C84.1265 38.3368 84.5219 38.2527 84.836 38.0844C85.1501 37.9162 85.3857 37.6834 85.5428 37.3861C85.7054 37.0888 85.7868 36.7495 85.7868 36.3681C85.7868 35.9586 85.7082 35.6053 85.5512 35.308C85.3941 35.0051 85.1557 34.7723 84.836 34.6097C84.5163 34.447 84.1125 34.3657 83.6245 34.3657H81.4875V44.7899H79.1738V32.5399ZM86.0896 44.7899L83.2543 39.3044L85.7026 39.296L88.5716 44.6722V44.7899H86.0896ZM99.3958 42.9726V44.7899H92.8838V42.9726H99.3958ZM93.5905 32.5399V44.7899H91.2768V32.5399H93.5905ZM98.5461 37.5964V39.3717H92.8838V37.5964H98.5461ZM99.3706 32.5399V34.3657H92.8838V32.5399H99.3706ZM106.46 42.3921L109.514 32.5399H112.08L107.755 44.7899H106.047L106.46 42.3921ZM103.641 32.5399L106.678 42.3921L107.116 44.7899H105.391L101.083 32.5399H103.641ZM116.956 32.5399V44.7899H114.642V32.5399H116.956ZM128.722 42.9726V44.7899H122.21V42.9726H128.722ZM122.917 32.5399V44.7899H120.603V32.5399H122.917ZM127.872 37.5964V39.3717H122.21V37.5964H127.872ZM128.697 32.5399V34.3657H122.21V32.5399H128.697ZM134.49 42.4426L136.93 32.5399H138.251L138.335 34.6265L135.727 44.7899H134.33L134.49 42.4426ZM132.95 32.5399L134.953 42.4089V44.7899H133.43L130.653 32.5399H132.95ZM140.867 42.3669L142.836 32.5399H145.141L142.365 44.7899H140.842L140.867 42.3669ZM138.882 32.5399L141.322 42.4762L141.465 44.7899H140.068L137.468 34.6181L137.569 32.5399H138.882ZM154.165 41.6097C154.165 41.3741 154.129 41.1637 154.056 40.9787C153.988 40.7879 153.862 40.6169 153.677 40.4654C153.497 40.3084 153.242 40.1569 152.911 40.0111C152.586 39.8597 152.165 39.7026 151.649 39.5399C151.077 39.3605 150.544 39.1585 150.051 38.9342C149.557 38.7098 149.122 38.449 148.747 38.1517C148.377 37.8545 148.088 37.5123 147.88 37.1253C147.673 36.7327 147.569 36.2783 147.569 35.7623C147.569 35.2575 147.675 34.7976 147.889 34.3825C148.107 33.9674 148.416 33.6113 148.814 33.314C149.212 33.0111 149.681 32.7783 150.219 32.6157C150.763 32.453 151.363 32.3717 152.02 32.3717C152.928 32.3717 153.713 32.5371 154.375 32.8681C155.043 33.199 155.559 33.6477 155.923 34.2142C156.288 34.7807 156.47 35.4174 156.47 36.1241H154.165C154.165 35.7427 154.084 35.4061 153.921 35.1145C153.764 34.8228 153.523 34.5928 153.197 34.4246C152.878 34.2563 152.474 34.1722 151.986 34.1722C151.515 34.1722 151.122 34.2423 150.808 34.3825C150.499 34.5227 150.267 34.7134 150.11 34.9546C149.958 35.1958 149.883 35.465 149.883 35.7623C149.883 35.9867 149.936 36.1886 150.042 36.3681C150.149 36.542 150.309 36.7074 150.522 36.8645C150.735 37.0159 150.999 37.1589 151.313 37.2936C151.633 37.4226 152.003 37.5516 152.423 37.6806C153.096 37.8825 153.685 38.1069 154.19 38.3537C154.701 38.6004 155.124 38.8809 155.461 39.195C155.803 39.5091 156.058 39.8625 156.226 40.2551C156.4 40.6477 156.487 41.0936 156.487 41.5928C156.487 42.1201 156.383 42.5912 156.176 43.0063C155.968 43.4214 155.671 43.7747 155.284 44.0664C154.897 44.3581 154.431 44.5796 153.887 44.7311C153.349 44.8825 152.746 44.9582 152.078 44.9582C151.484 44.9582 150.895 44.8797 150.312 44.7226C149.734 44.56 149.209 44.3188 148.738 43.9991C148.267 43.6738 147.891 43.2643 147.611 42.7707C147.33 42.2715 147.19 41.6882 147.19 41.0207H149.512C149.512 41.4077 149.574 41.7387 149.697 42.0135C149.826 42.2827 150.006 42.5043 150.236 42.6782C150.471 42.8464 150.746 42.9698 151.06 43.0484C151.374 43.1269 151.714 43.1662 152.078 43.1662C152.55 43.1662 152.937 43.1016 153.239 42.9726C153.548 42.838 153.778 42.6529 153.929 42.4174C154.086 42.1818 154.165 41.9125 154.165 41.6097Z" fill="white"/>
<path d="M60.1609 0.348633L63.0474 7.28859L70.5397 7.88924L64.8314 12.779L66.5753 20.0902L60.1609 16.1723L53.7465 20.0902L55.4905 12.779L49.7822 7.88924L57.2744 7.28859L60.1609 0.348633Z" fill="#FF3D2E"/>
<path d="M81.9812 0.348633L84.8677 7.28859L92.36 7.88924L86.6517 12.779L88.3956 20.0902L81.9812 16.1723L75.5668 20.0902L77.3108 12.779L71.6025 7.88924L79.0947 7.28859L81.9812 0.348633Z" fill="#FF3D2E"/>
<path d="M103.798 0.348633L106.684 7.28859L114.176 7.88924L108.468 12.779L110.212 20.0902L103.798 16.1723L97.3832 20.0902L99.1272 12.779L93.4189 7.88924L100.911 7.28859L103.798 0.348633Z" fill="#FF3D2E"/>
<path d="M125.618 0.348633L128.504 7.28859L135.997 7.88924L130.288 12.779L132.032 20.0902L125.618 16.1723L119.204 20.0902L120.948 12.779L115.239 7.88924L122.731 7.28859L125.618 0.348633Z" fill="#FF3D2E"/>
<path d="M147.438 0.348633L150.325 7.28859L157.817 7.88924L152.109 12.779L153.853 20.0902L147.438 16.1723L141.024 20.0902L142.768 12.779L137.06 7.88924L144.552 7.28859L147.438 0.348633Z" fill="#FF3D2E"/>
</g>
<g clip-path="url(#clip1_369_4314)">
<path d="M267.051 37.6806H268.305C268.748 37.6806 269.112 37.6049 269.398 37.4534C269.69 37.2964 269.906 37.0832 270.046 36.814C270.192 36.5391 270.265 36.2222 270.265 35.8633C270.265 35.5099 270.201 35.2042 270.072 34.9462C269.943 34.6826 269.746 34.4807 269.483 34.3404C269.225 34.1946 268.894 34.1217 268.49 34.1217C268.164 34.1217 267.864 34.1862 267.59 34.3152C267.32 34.4442 267.104 34.6293 266.942 34.8705C266.785 35.1061 266.706 35.3893 266.706 35.7202H264.477C264.477 35.0584 264.65 34.4778 264.998 33.9786C265.352 33.4738 265.828 33.0784 266.428 32.7924C267.029 32.5063 267.699 32.3633 268.439 32.3633C269.247 32.3633 269.954 32.4979 270.559 32.7671C271.171 33.0307 271.645 33.4206 271.981 33.9366C272.324 34.4526 272.495 35.092 272.495 35.8549C272.495 36.2194 272.408 36.584 272.234 36.9486C272.066 37.3076 271.816 37.6329 271.485 37.9246C271.16 38.2106 270.759 38.4434 270.282 38.6229C269.811 38.7968 269.269 38.8837 268.658 38.8837H267.051V37.6806ZM267.051 39.3969V38.2106H268.658C269.348 38.2106 269.945 38.292 270.45 38.4546C270.961 38.6117 271.381 38.836 271.712 39.1277C272.043 39.4137 272.287 39.7475 272.444 40.1289C272.607 40.5103 272.688 40.9198 272.688 41.3573C272.688 41.9294 272.582 42.4398 272.368 42.8885C272.155 43.3316 271.855 43.7074 271.468 44.0159C271.087 44.3244 270.638 44.56 270.122 44.7226C269.606 44.8797 269.048 44.9582 268.448 44.9582C267.926 44.9582 267.418 44.8881 266.925 44.7479C266.437 44.602 265.997 44.3861 265.604 44.1C265.211 43.8084 264.9 43.4438 264.67 43.0063C264.44 42.5632 264.325 42.05 264.325 41.4666H266.555C266.555 41.8032 266.636 42.1033 266.799 42.3669C266.967 42.6305 267.197 42.838 267.489 42.9895C267.786 43.1353 268.12 43.2082 268.49 43.2082C268.899 43.2082 269.25 43.1353 269.541 42.9895C269.839 42.838 270.066 42.6249 270.223 42.35C270.38 42.0696 270.459 41.7359 270.459 41.3488C270.459 40.8889 270.372 40.5159 270.198 40.2299C270.024 39.9438 269.774 39.7335 269.449 39.5988C269.129 39.4642 268.748 39.3969 268.305 39.3969H267.051ZM283.908 43.0399V44.7899H275.612V43.2924L279.592 38.9931C280.007 38.5219 280.335 38.1125 280.576 37.7647C280.817 37.417 280.988 37.1028 281.089 36.8224C281.196 36.5363 281.249 36.2643 281.249 36.0063C281.249 35.6305 281.182 35.3024 281.047 35.0219C280.913 34.7359 280.716 34.5143 280.458 34.3573C280.206 34.2002 279.895 34.1217 279.524 34.1217C279.115 34.1217 278.764 34.217 278.473 34.4077C278.187 34.5928 277.968 34.8508 277.816 35.1818C277.671 35.5127 277.598 35.8913 277.598 36.3176H275.368C275.368 35.594 275.536 34.935 275.873 34.3404C276.209 33.7403 276.692 33.2607 277.32 32.9017C277.948 32.5428 278.694 32.3633 279.558 32.3633C280.399 32.3633 281.112 32.5035 281.695 32.7839C282.278 33.0588 282.721 33.4514 283.024 33.9618C283.327 34.4722 283.479 35.0808 283.479 35.7875C283.479 36.1802 283.414 36.5672 283.285 36.9486C283.156 37.33 282.974 37.7086 282.738 38.0844C282.508 38.4546 282.233 38.8304 281.914 39.2118C281.594 39.5932 281.238 39.9831 280.845 40.3813L278.456 43.0399H283.908ZM292.33 32.5399H296.781C297.712 32.5399 298.511 32.6802 299.179 32.9606C299.846 33.2411 300.359 33.6561 300.718 34.2058C301.077 34.7555 301.257 35.4314 301.257 36.2335C301.257 36.8673 301.145 37.417 300.92 37.8825C300.696 38.348 300.379 38.7379 299.97 39.052C299.566 39.3661 299.089 39.6129 298.539 39.7924L297.816 40.1625H293.887L293.87 38.3368H296.806C297.283 38.3368 297.678 38.2527 297.992 38.0844C298.307 37.9162 298.542 37.6834 298.699 37.3861C298.862 37.0888 298.943 36.7495 298.943 36.3681C298.943 35.9586 298.865 35.6053 298.708 35.308C298.551 35.0051 298.312 34.7723 297.992 34.6097C297.673 34.447 297.269 34.3657 296.781 34.3657H294.644V44.7899H292.33V32.5399ZM299.246 44.7899L296.411 39.3044L298.859 39.296L301.728 44.6722V44.7899H299.246ZM312.552 42.9726V44.7899H306.04V42.9726H312.552ZM306.747 32.5399V44.7899H304.433V32.5399H306.747ZM311.703 37.5964V39.3717H306.04V37.5964H311.703ZM312.527 32.5399V34.3657H306.04V32.5399H312.527ZM319.616 42.3921L322.67 32.5399H325.236L320.911 44.7899H319.203L319.616 42.3921ZM316.797 32.5399L319.835 42.3921L320.272 44.7899H318.547L314.24 32.5399H316.797ZM330.112 32.5399V44.7899H327.798V32.5399H330.112ZM341.878 42.9726V44.7899H335.366V42.9726H341.878ZM336.073 32.5399V44.7899H333.759V32.5399H336.073ZM341.029 37.5964V39.3717H335.366V37.5964H341.029ZM341.853 32.5399V34.3657H335.366V32.5399H341.853ZM347.646 42.4426L350.086 32.5399H351.407L351.491 34.6265L348.883 44.7899H347.486L347.646 42.4426ZM346.106 32.5399L348.109 42.4089V44.7899H346.586L343.81 32.5399H346.106ZM354.023 42.3669L355.992 32.5399H358.297L355.521 44.7899H353.998L354.023 42.3669ZM352.038 32.5399L354.478 42.4762L354.621 44.7899H353.224L350.624 34.6181L350.725 32.5399H352.038ZM367.321 41.6097C367.321 41.3741 367.285 41.1637 367.212 40.9787C367.145 40.7879 367.018 40.6169 366.833 40.4654C366.654 40.3084 366.399 40.1569 366.068 40.0111C365.742 39.8597 365.322 39.7026 364.806 39.5399C364.233 39.3605 363.701 39.1585 363.207 38.9342C362.713 38.7098 362.279 38.449 361.903 38.1517C361.533 37.8545 361.244 37.5123 361.036 37.1253C360.829 36.7327 360.725 36.2783 360.725 35.7623C360.725 35.2575 360.832 34.7976 361.045 34.3825C361.264 33.9674 361.572 33.6113 361.97 33.314C362.368 33.0111 362.837 32.7783 363.375 32.6157C363.919 32.453 364.52 32.3717 365.176 32.3717C366.084 32.3717 366.87 32.5371 367.532 32.8681C368.199 33.199 368.715 33.6477 369.08 34.2142C369.444 34.7807 369.627 35.4174 369.627 36.1241H367.321C367.321 35.7427 367.24 35.4061 367.077 35.1145C366.92 34.8228 366.679 34.5928 366.354 34.4246C366.034 34.2563 365.63 34.1722 365.142 34.1722C364.671 34.1722 364.278 34.2423 363.964 34.3825C363.656 34.5227 363.423 34.7134 363.266 34.9546C363.114 35.1958 363.039 35.465 363.039 35.7623C363.039 35.9867 363.092 36.1886 363.199 36.3681C363.305 36.542 363.465 36.7074 363.678 36.8645C363.891 37.0159 364.155 37.1589 364.469 37.2936C364.789 37.4226 365.159 37.5516 365.58 37.6806C366.253 37.8825 366.842 38.1069 367.346 38.3537C367.857 38.6004 368.28 38.8809 368.617 39.195C368.959 39.5091 369.214 39.8625 369.383 40.2551C369.556 40.6477 369.643 41.0936 369.643 41.5928C369.643 42.1201 369.54 42.5912 369.332 43.0063C369.125 43.4214 368.827 43.7747 368.44 44.0664C368.053 44.3581 367.588 44.5796 367.044 44.7311C366.505 44.8825 365.902 44.9582 365.235 44.9582C364.64 44.9582 364.051 44.8797 363.468 44.7226C362.89 44.56 362.366 44.3188 361.895 43.9991C361.423 43.6738 361.048 43.2643 360.767 42.7707C360.487 42.2715 360.346 41.6882 360.346 41.0207H362.669C362.669 41.4077 362.73 41.7387 362.854 42.0135C362.983 42.2827 363.162 42.5043 363.392 42.6782C363.628 42.8464 363.903 42.9698 364.217 43.0484C364.531 43.1269 364.87 43.1662 365.235 43.1662C365.706 43.1662 366.093 43.1016 366.396 42.9726C366.704 42.838 366.934 42.6529 367.086 42.4174C367.243 42.1818 367.321 41.9125 367.321 41.6097Z" fill="white"/>
<path d="M273.313 0.348633L276.2 7.28859L283.692 7.88924L277.984 12.779L279.728 20.0902L273.313 16.1723L266.899 20.0902L268.643 12.779L262.935 7.88924L270.427 7.28859L273.313 0.348633Z" fill="#4D88E6"/>
<path d="M295.134 0.348633L298.02 7.28859L305.512 7.88924L299.804 12.779L301.548 20.0902L295.134 16.1723L288.719 20.0902L290.463 12.779L284.755 7.88924L292.247 7.28859L295.134 0.348633Z" fill="#4D88E6"/>
<path d="M316.954 0.348633L319.84 7.28859L327.333 7.88924L321.624 12.779L323.368 20.0902L316.954 16.1723L310.539 20.0902L312.283 12.779L306.575 7.88924L314.067 7.28859L316.954 0.348633Z" fill="#4D88E6"/>
<path d="M338.774 0.348633L341.661 7.28859L349.153 7.88924L343.445 12.779L345.189 20.0902L338.774 16.1723L332.36 20.0902L334.104 12.779L328.395 7.88924L335.888 7.28859L338.774 0.348633Z" fill="#4D88E6"/>
<path d="M360.587 0.348633L363.473 7.28859L370.965 7.88924L365.257 12.779L367.001 20.0902L360.587 16.1723L354.172 20.0902L355.916 12.779L350.208 7.88924L357.7 7.28859L360.587 0.348633Z" fill="#4D88E6"/>
<path d="M226.873 18.114C226.873 18.114 224.384 17.8754 224.384 19.9751V29.3759H240.716V32.1914C240.725 32.3794 240.691 32.5669 240.618 32.7416C240.546 32.9163 240.435 33.0743 240.294 33.205C240.153 33.3358 239.984 33.4364 239.8 33.5002C239.615 33.564 239.418 33.5896 239.222 33.5753H224.384V45.7916H242.21C242.21 45.7916 253.016 44.2169 253.115 33.5753V18.114H226.873ZM252.617 3.12988H220.45C208.798 5.75449 208.549 14.9168 208.549 14.9168V45.8393H220.898V17.6845C220.898 15.2985 223.388 14.869 223.388 14.869H252.568L252.617 3.12988Z" fill="#4385F6"/>
</g>
<defs>
<clipPath id="clip0_369_4314">
<rect width="158" height="54" fill="white" transform="translate(0.5 0.133789)"/>
</clipPath>
<clipPath id="clip1_369_4314">
<rect width="163" height="54" fill="white" transform="translate(208.5 0.133789)"/>
</clipPath>
</defs>
</svg>
