<svg width="19" height="14" viewBox="0 0 19 14" fill="none" xmlns="http://www.w3.org/2000/svg">
<path d="M18.5243 4.95044C18.5659 3.74761 18.3028 2.55379 17.7596 1.47981C17.391 1.03913 16.8795 0.741744 16.3142 0.639466C13.976 0.4273 11.628 0.34034 9.2805 0.378959C6.94153 0.338587 4.60206 0.422741 2.27202 0.631062C1.81136 0.714859 1.38505 0.930933 1.04512 1.25292C0.288809 1.9504 0.204774 3.1437 0.12074 4.15211C-0.00118411 5.96521 -0.00118411 7.78445 0.12074 9.59755C0.145051 10.1651 0.229559 10.7285 0.372843 11.2782C0.474168 11.7027 0.679168 12.0953 0.969489 12.4211C1.31173 12.7601 1.74797 12.9885 2.2216 13.0766C4.03332 13.3002 5.8588 13.3929 7.68385 13.3539C10.6251 13.3959 13.2049 13.3539 16.2554 13.1186C16.7406 13.0359 17.1892 12.8073 17.5411 12.4631C17.7764 12.2278 17.9521 11.9397 18.0537 11.6228C18.3542 10.7006 18.5019 9.73546 18.4907 8.7656C18.5243 8.29501 18.5243 5.45465 18.5243 4.95044ZM7.38132 9.26981V4.06807L12.3562 6.68155C10.9612 7.45467 9.12084 8.32863 7.38132 9.26981Z" fill="#27E9E9"/>
</svg>
